<svg xmlns="http://www.w3.org/2000/svg" viewBox="0 0 100 100">
  <defs>
    <linearGradient id="treeGradient" x1="0%" y1="0%" x2="0%" y2="100%">
      <stop offset="0%" style="stop-color:#1a7a50;stop-opacity:1" />
      <stop offset="100%" style="stop-color:#0d5c3d;stop-opacity:1" />
    </linearGradient>
  </defs>
  
  <!-- Tree -->
  <path d="M 50 10 L 30 40 L 35 40 L 20 60 L 25 60 L 15 80 L 85 80 L 75 60 L 80 60 L 65 40 L 70 40 Z" 
        fill="url(#treeGradient)" />
  
  <!-- Trunk -->
  <rect x="45" y="80" width="10" height="15" fill="#3E2723" />
  
  <!-- Star -->
  <path d="M 50 5 L 52 12 L 59 12 L 53 16 L 55 23 L 50 19 L 45 23 L 47 16 L 41 12 L 48 12 Z" 
        fill="#FFD700" />
  
  <!-- Ornaments -->
  <circle cx="40" cy="50" r="3" fill="#FFD700" />
  <circle cx="60" cy="50" r="3" fill="#C41E3A" />
  <circle cx="50" cy="65" r="3" fill="#FFD700" />
  <circle cx="35" cy="70" r="3" fill="#C41E3A" />
  <circle cx="65" cy="70" r="3" fill="#FFD700" />
</svg>
